Coordinates
version=1
nRows=14
nColumns=24
inDegrees=yes

Units are S.I. units (second, meters, Newtons, ...)
Angles are in degrees.

endheader
time	pelvis_tilt	pelvis_list	pelvis_rotation	pelvis_tx	pelvis_ty	pelvis_tz	hip_flexion_r	hip_adduction_r	hip_rotation_r	knee_angle_r	ankle_angle_r	subtalar_angle_r	mtp_angle_r	hip_flexion_l	hip_adduction_l	hip_rotation_l	knee_angle_l	ankle_angle_l	subtalar_angle_l	mtp_angle_l	lumbar_extension	lumbar_bending	lumbar_rotation
      7.31000000	    -11.33725859	      0.57850751	     -8.14066221	     -1.09611979	     -0.02521895	     -0.25403144	     -4.37551464	      2.54501625	     10.62846832	    -12.93607161	      7.47597191	      7.54611979	     19.71377633	     33.82678513	     -3.39649635	     -4.60555268	     -6.18634773	     -0.92848719	      1.38226262	      7.49602371	      9.51553721	      0.78037079	     17.69948188
      7.31500000	    -11.41544454	      0.68143405	     -8.20500793	     -1.08967442	     -0.02593931	     -0.25479604	     -4.45062211	      2.28987794	     10.28558718	    -13.33974434	      7.34227118	      8.30997608	     20.17373165	     33.87041380	     -3.27604062	     -4.71273524	     -6.69272910	     -1.31648154	      0.95245763	      7.74633500	      9.73997696	      0.68597647	     17.77665983
      7.32000000	    -11.49015324	      0.81228507	     -8.22525375	     -1.08310201	     -0.02663743	     -0.25551663	     -4.57487367	      2.03161630	     10.15075395	    -13.68196137	      7.05307084	      8.64860325	     20.32863657	     33.92377905	     -3.11100845	     -4.81879451	     -7.26009865	     -1.66683212	      0.62580384	      7.81841996	      9.98639908	      0.53835548	     17.82895361
      7.32500000	    -11.57144626	      0.92969738	     -8.26085801	     -1.07661284	     -0.02730319	     -0.25632221	     -4.63730364	      1.77138715	      9.90820257	    -14.10210227	      6.78609653	      9.20968868	     20.60006775	     33.98770500	     -2.95486565	     -4.84331523	     -7.83711084	     -2.14654853	      0.12750351	      7.89342780	     10.22200787	      0.42290106	     17.88584553
      7.33000000	    -11.64789593	      1.04347370	     -8.24500788	     -1.07012072	     -0.02793832	     -0.25723783	     -4.69231180	      1.50657137	      9.59325646	    -14.53655431	      6.46933880	      9.83414501	     20.99185831	     34.05778890	     -2.75938809	     -4.72609277	     -8.42513317	     -2.73914025	     -0.52930714	      8.01129765	     10.44779027	      0.30393216	     17.84744326
      7.33500000	    -11.73881036	      1.22252476	     -8.23846596	     -1.06360200	     -0.02849561	     -0.25812321	     -4.70484714	      1.18043737	      9.34808886	    -15.00055863	      6.09695955	     10.37243589	     21.31148113	     34.14872405	     -2.50912679	     -4.69458080	     -9.02196403	     -3.34362604	     -1.10443463	      8.03761800	     10.70930578	      0.11474689	     17.85178916
      7.34000000	    -11.83810245	      1.43306447	     -8.19535558	     -1.05713474	     -0.02897850	     -0.25905470	     -4.66570916	      0.81960115	      9.00711266	    -15.51850941	      5.69421429	     10.98168230	     21.67549533	     34.26049037	     -2.20269803	     -4.56930504	     -9.62352529	     -4.00739986	     -1.71233925	      8.01168745	     10.97406586	     -0.11916754	     17.82440671
      7.34500000	    -11.94366299	      1.68752968	     -8.13007157	     -1.05067478	     -0.02937566	     -0.26000870	     -4.58863033	      0.41158732	      8.63847204	    -16.07145184	      5.24220859	     11.61438935	     22.05663563	     34.39164995	     -1.83607701	     -4.40013494	    -10.24407944	     -4.65967169	     -2.30169192	      7.92207732	     11.25278604	     -0.40623473	     17.78142521
      7.35000000	    -12.05151678	      1.97024184	     -8.02828707	     -1.04425516	     -0.02969152	     -0.26100841	     -4.47459173	     -0.02894329	      8.20165321	    -16.66471081	      4.74209684	     12.29053382	     22.48920954	     34.54785749	     -1.41307951	     -4.15914595	    -10.90383731	     -5.28047101	     -2.86830656	      7.75842274	     11.53160752	     -0.73396139	     17.71578223
      7.35500000	    -12.16276344	      2.29060394	     -7.89961288	     -1.03785076	     -0.02990934	     -0.26202477	     -4.31840431	     -0.50946356	      7.73701017	    -17.30960834	      4.17753054	     12.99618044	     22.94062899	     34.71432125	     -0.93333273	     -3.87199099	    -11.58136743	     -5.83677107	     -3.34671583	      7.51468127	     11.81929853	     -1.11187333	     17.61848284
      7.36000000	    -12.26767047	      2.60893852	     -7.71862292	     -1.03149350	     -0.03005019	     -0.26313078	     -4.14104468	     -0.99798823	      7.15835504	    -17.98715077	      3.53686502	     13.76791532	     23.50090257	     34.90689582	     -0.40992887	     -3.50722078	    -12.32691601	     -6.33672307	     -3.81527176	      7.13780870	     12.08718711	     -1.49545170	     17.52405367
      7.36500000	    -12.37621406	      2.97772205	     -7.53541719	     -1.02510601	     -0.03010050	     -0.26414353	     -3.92224510	     -1.53556312	      6.60599518	    -18.71921445	      2.82606602	     14.54413738	     24.03684527	     35.08488012	      0.15610415	     -3.11977743	    -13.05804302	     -6.73787617	     -4.10278056	      6.71541626	     12.37543862	     -1.95500390	     17.35534951
      7.37000000	    -12.44054029	      3.33160802	     -7.29265284	     -1.01875801	     -0.03001728	     -0.26527915	     -3.74966973	     -2.06870899	      5.99944732	    -19.39919140	      1.75413709	     15.14470058	     25.26061137	     35.21955946	      0.78474689	     -2.51666990	    -13.83381319	     -6.98379977	     -4.50057565	      5.53483155	     12.59658737	     -2.40831320	     17.21629829
      7.37500000	    -12.53266070	      3.68568147	     -7.07517227	     -1.01235149	     -0.02994121	     -0.26622251	     -3.48184162	     -2.60284847	      5.32492546	    -20.25194408	      0.95538185	     16.06948836	     25.56723370	     35.39003073	      1.33983202	     -2.26496764	    -14.60542166	     -7.18313267	     -4.38661743	      5.31082952	     12.86439966	     -2.87624827	     17.05091954
